HIERARCHY
ROOT Hips
{
	OFFSET 0.00000 0.00000 0.00000
	CHANNELS 6 Xposition Yposition Zposition Zrotation Yrotation Xrotation 
	JOINT LHipJoint
	{
		OFFSET 0 0 0
		CHANNELS 3 Zrotation Yrotation Xrotation
		JOINT LeftUpLeg
		{
			OFFSET 1.53139 -1.83434 0.76626
			CHANNELS 3 Zrotation Yrotation Xrotation
			JOINT LeftLeg
			{
				OFFSET 2.56112 -7.03663 0.00000
				CHANNELS 3 Zrotation Yrotation Xrotation
				JOINT LeftFoot
				{
					OFFSET 2.59983 -7.14299 0.00000
					CHANNELS 3 Zrotation Yrotation Xrotation
					JOINT LeftToeBase
					{
						OFFSET 0.13742 -0.37757 2.00054
						CHANNELS 3 Zrotation Yrotation Xrotation
						End Site
						{
							OFFSET 0.00000 -0.00000 1.02897
						}
					}
				}
			}
		}
	}
	JOINT RHipJoint
	{
		OFFSET 0 0 0
		CHANNELS 3 Zrotation Yrotation Xrotation
		JOINT RightUpLeg
		{
			OFFSET -1.40122 -1.83435 0.76627
			CHANNELS 3 Zrotation Yrotation Xrotation
			JOINT RightLeg
			{
				OFFSET -2.54052 -6.98003 0.00000
				CHANNELS 3 Zrotation Yrotation Xrotation
				JOINT RightFoot
				{
					OFFSET -2.63179 -7.23079 0.00000
					CHANNELS 3 Zrotation Yrotation Xrotation
					JOINT RightToeBase
					{
						OFFSET -0.24131 -0.66299 2.03908
						CHANNELS 3 Zrotation Yrotation Xrotation
						End Site
						{
							OFFSET -0.00000 -0.00000 1.07391
						}
					}
				}
			}
		}
	}
	JOINT LowerBack
	{
		OFFSET 0 0 0
		CHANNELS 3 Zrotation Yrotation Xrotation
		JOINT Spine
		{
			OFFSET 0.01174 2.10302 -0.29778
			CHANNELS 3 Zrotation Yrotation Xrotation
			JOINT Spine1
			{
				OFFSET 0.00772 2.13227 -0.01247
				CHANNELS 3 Zrotation Yrotation Xrotation
				JOINT Neck
				{
					OFFSET 0 0 0
					CHANNELS 3 Zrotation Yrotation Xrotation
					JOINT Neck1
					{
						OFFSET -0.09219 1.60848 0.31481
						CHANNELS 3 Zrotation Yrotation Xrotation
						JOINT Head
						{
							OFFSET 0.13974 1.65456 -0.31134
							CHANNELS 3 Zrotation Yrotation Xrotation
							End Site
							{
								OFFSET 0.04742 1.69515 -0.14578
							}
						}
					}
				}
				JOINT LeftShoulder
				{
					OFFSET 0 0 0
					CHANNELS 3 Zrotation Yrotation Xrotation
					JOINT LeftArm
					{
						OFFSET 3.24909 1.02882 -0.23993
						CHANNELS 3 Zrotation Yrotation Xrotation
						JOINT LeftForeArm
						{
							OFFSET 5.32955 -0.00000 -0.00000
							CHANNELS 3 Zrotation Yrotation Xrotation
							JOINT LeftHand
							{
								OFFSET 3.69232 -0.00000 -0.00000
								CHANNELS 3 Zrotation Yrotation Xrotation
								JOINT LeftFingerBase
								{
									OFFSET 0 0 0
									CHANNELS 3 Zrotation Yrotation Xrotation
									JOINT LeftHandIndex1
									{
										OFFSET 0.53660 -0.00000 -0.00000
										CHANNELS 3 Zrotation Yrotation Xrotation
										End Site
										{
											OFFSET 0.43262 -0.00000 -0.00000
										}
									}
								}
								JOINT LThumb
								{
									OFFSET 0 0 0
									CHANNELS 3 Zrotation Yrotation Xrotation
									End Site
									{
										OFFSET 0.43922 -0.00000 0.43922
									}
								}
							}
						}
					}
				}
				JOINT RightShoulder
				{
					OFFSET 0 0 0
					CHANNELS 3 Zrotation Yrotation Xrotation
					JOINT RightArm
					{
						OFFSET -3.21387 0.93002 -0.34594
						CHANNELS 3 Zrotation Yrotation Xrotation
						JOINT RightForeArm
						{
							OFFSET -5.23431 -0.00000 0.00000
							CHANNELS 3 Zrotation Yrotation Xrotation
							JOINT RightHand
							{
								OFFSET -3.55301 -0.00000 -0.00000
								CHANNELS 3 Zrotation Yrotation Xrotation
								JOINT RightFingerBase
								{
									OFFSET 0 0 0
									CHANNELS 3 Zrotation Yrotation Xrotation
									JOINT RightHandIndex1
									{
										OFFSET -0.77252 -0.00000 -0.00000
										CHANNELS 3 Zrotation Yrotation Xrotation
										End Site
										{
											OFFSET -0.62283 -0.00000 -0.00000
										}
									}
								}
								JOINT RThumb
								{
									OFFSET 0 0 0
									CHANNELS 3 Zrotation Yrotation Xrotation
									End Site
									{
										OFFSET -0.63234 -0.00000 0.63234
									}
								}
							}
						}
					}
				}
			}
		}
	}
}
MOTION
Frames: 10
Frame Time: .0083333
-13.5497 17.9144 13.6683 -2.5712 69.9021 0.1007 0.0000 0.0000 0.0000 -17.7208 2.8536 -29.6740 2.1377 9.1472 26.2568 0.1733 3.6077 -10.0424 0.0334 -1.1794 -3.2427 0.0000 0.0000 0.0000 20.4130 -5.8740 0.9917 -0.8031 -5.7197 15.9733 -0.1279 -14.4118 -21.8164 -0.1475 2.4753 -6.8211 2.5150 2.8979 11.7101 -0.2446 4.1912 0.8982 -2.3421 2.0125 -5.4155 -12.0472 -5.0209 -21.2215 6.6559 -4.6602 29.6451 3.9299 -2.3305 14.1846 0.0000 -0.0000 0.0000 -84.8682 2.4882 21.3494 20.2191 -30.9054 -5.6435 -0.0000 -0.0000 0.8947 24.5759 26.6723 11.6009 -7.1250 0.0000 -0.0000 -6.2626 58.7859 -2.1157 0.0000 -0.0000 0.0000 80.4470 -4.6064 16.8351 -13.5663 22.1113 -2.6627 0.0000 0.0000 11.0579 -14.7641 9.2536 -2.4267 7.1250 -0.0000 -0.0000 8.7154 -20.4664 5.1773
-13.4979 17.9121 13.6921 -3.0668 70.6071 -0.1888 0.0000 0.0000 0.0000 -17.2927 1.5319 -29.4784 1.9137 8.6840 24.8118 0.1536 4.5741 -10.4968 0.0008 -0.1859 -0.5108 0.0000 0.0000 0.0000 20.7228 -6.0921 1.3715 -0.7373 -5.4854 15.2984 -0.0568 -15.0594 -21.9640 -0.1333 2.3530 -6.4823 2.8422 2.9489 11.7044 -0.2685 4.3002 0.9286 -2.5646 2.0606 -5.3485 -12.0662 -4.9811 -21.1912 6.7670 -4.6334 29.3583 3.9740 -2.3027 14.0525 0.0000 0.0000 0.0000 -84.7144 2.6615 20.5193 20.2680 -30.9639 -5.6686 -0.0000 -0.0000 1.2423 23.6983 26.4771 11.0725 -7.1250 0.0000 -0.0000 -7.1454 58.3812 -2.3463 0.0000 0.0000 0.0000 80.2395 -4.1639 16.8512 -13.5180 22.0414 -2.6445 0.0000 0.0000 10.7201 -14.7470 9.2261 -2.4166 7.1250 -0.0000 -0.0000 8.7284 -20.4954 5.1794
-13.4490 17.9061 13.7145 -3.3664 71.3402 -0.3366 0.0000 0.0000 0.0000 -16.8471 -0.0495 -29.1282 1.7101 8.2343 23.4279 0.1227 5.6915 -11.0078 0.0020 0.2852 0.7837 0.0000 0.0000 0.0000 20.9345 -6.5059 1.7287 -0.6714 -5.2400 14.5943 0.0262 -15.5885 -21.8552 -0.1457 2.4600 -6.7787 3.1180 3.0081 11.7679 -0.3134 4.4147 0.9729 -2.7851 2.1123 -5.3059 -11.9468 -5.0156 -21.2513 6.5368 -4.6405 29.2183 3.8514 -2.3213 13.9955 -0.0000 0.0000 0.0000 -84.5848 2.8001 19.8464 20.2859 -30.9853 -5.6778 -0.0000 -0.0000 1.4002 22.8783 26.4252 10.6357 -7.1250 0.0000 -0.0000 -8.0205 58.1416 -2.5897 -0.0000 0.0000 0.0000 80.1053 -3.7154 16.4898 -13.5157 22.0382 -2.6437 0.0000 0.0000 10.5892 -14.6044 9.1850 -2.3817 7.1250 -0.0000 -0.0000 8.8315 -20.5444 5.2322
-13.3899 17.8961 13.7444 -3.2640 71.8840 -0.2066 0.0000 0.0000 0.0000 -16.5443 -1.4118 -28.6477 1.5246 7.7965 22.0977 0.0696 6.9217 -11.3804 0.0071 -0.5430 -1.4920 0.0000 0.0000 0.0000 20.9876 -6.8615 2.2124 -0.6141 -5.0156 13.9532 0.0984 -16.0441 -21.7705 -0.1809 2.7399 -7.5553 3.1516 3.1071 11.8737 -0.3314 4.5532 1.0407 -2.8480 2.1817 -5.2802 -11.8634 -5.0062 -21.2736 6.1786 -4.5318 29.0209 3.7027 -2.3118 13.8907 0.0000 0.0000 0.0000 -84.5784 3.0521 19.3720 20.3790 -31.0963 -5.7258 -0.0000 -0.0000 1.0256 23.2969 26.6915 10.9470 -7.1250 0.0000 -0.0000 -7.6880 58.5106 -2.5498 0.0000 0.0000 0.0000 79.8972 -3.2439 16.1820 -13.4710 21.9734 -2.6269 0.0000 0.0000 10.5566 -14.7002 9.1033 -2.3768 7.1250 -0.0000 -0.0000 8.7653 -20.6229 5.1764
-13.3209 17.8874 13.7714 -3.0688 72.2974 0.0252 0.0000 0.0000 0.0000 -16.3667 -2.3898 -28.2964 1.3555 7.3698 20.8158 0.0064 7.9674 -11.4908 0.0453 -1.3739 -3.7781 0.0000 0.0000 0.0000 20.9585 -7.1729 2.6646 -0.5695 -4.8332 13.4335 0.1379 -16.3522 -21.8178 -0.1951 2.8447 -7.8468 3.2139 3.2250 11.8938 -0.4012 4.7145 1.1297 -2.9773 2.2638 -5.1756 -12.0159 -4.9978 -21.3625 6.2722 -4.4808 28.9023 3.7721 -2.2915 13.8603 0.0000 -0.0000 0.0000 -84.5777 3.2787 18.6902 20.4391 -31.1677 -5.7569 -0.0000 -0.0000 1.0507 23.6799 26.7540 11.1677 -7.1250 0.0000 -0.0000 -7.2950 58.6630 -2.4452 0.0000 -0.0000 0.0000 79.7167 -2.7437 15.8053 -13.4253 21.9072 -2.6098 0.0000 0.0000 10.6919 -14.5465 9.1861 -2.3721 7.1250 -0.0000 -0.0000 8.8728 -20.5462 5.2569
-13.2541 17.8829 13.7980 -3.2419 72.8560 0.0763 0.0000 0.0000 0.0000 -16.0470 -3.4028 -28.2324 1.2137 6.9886 19.6817 -0.0279 8.5779 -11.6753 0.0240 -1.0012 -2.7520 0.0000 0.0000 0.0000 21.0788 -7.5158 2.9199 -0.5245 -4.6411 12.8876 0.1648 -16.5974 -21.9084 -0.1856 2.7744 -7.6512 3.3591 3.2985 11.7252 -0.4698 4.8210 1.1779 -3.1307 2.3185 -5.0058 -11.9335 -4.9942 -21.4149 6.2917 -4.5049 28.7886 3.7577 -2.2877 13.8226 -0.0000 0.0000 0.0000 -84.4630 3.4417 18.0476 20.4067 -31.1292 -5.7401 -0.0000 -0.0000 1.3058 23.5794 26.3246 10.9542 -7.1250 0.0000 -0.0000 -7.2060 58.1966 -2.3344 -0.0000 0.0000 0.0000 79.5479 -2.2778 15.5737 -13.4494 21.9422 -2.6188 0.0000 0.0000 10.5826 -14.3953 9.2370 -2.3593 7.1250 -0.0000 -0.0000 8.9793 -20.5017 5.3306
-13.1853 17.8725 13.8233 -3.7056 73.5828 -0.1272 0.0000 0.0000 0.0000 -15.5717 -4.7373 -28.1601 1.1010 6.6673 18.7334 -0.0455 9.1404 -12.1703 0.0058 -0.4897 -1.3456 0.0000 0.0000 0.0000 21.3582 -7.5808 3.3205 -0.4760 -4.4248 12.2749 0.2062 -17.1133 -22.2721 -0.1399 2.4110 -6.6429 3.5102 3.2702 11.6164 -0.4596 4.7998 1.1170 -3.1958 2.3041 -4.9994 -11.6349 -4.9213 -21.3617 6.0775 -4.4419 28.7541 3.6306 -2.2552 13.7732 -0.0000 0.0000 0.0000 -84.4059 3.8190 17.3830 20.3523 -31.0645 -5.7120 -0.0000 -0.0000 1.5342 21.8047 23.9640 9.2295 -7.1250 0.0000 -0.0000 -8.0900 55.3791 -2.0711 -0.0000 0.0000 0.0000 79.3525 -1.9634 15.5540 -13.4987 22.0135 -2.6373 0.0000 0.0000 10.2191 -14.7699 9.1397 -2.3981 7.1250 -0.0000 -0.0000 8.7145 -20.5824 5.1537
-13.1115 17.8594 13.8585 -4.2550 73.7429 -0.8122 0.0000 0.0000 0.0000 -15.0437 -5.5349 -27.6717 1.0077 6.3874 17.9126 -0.0649 9.8731 -12.9273 0.0059 -0.4945 -1.3588 0.0000 0.0000 0.0000 21.6034 -7.3507 4.3290 -0.4301 -4.2085 11.6641 0.2156 -17.4794 -22.7431 -0.0785 1.8077 -4.9745 3.4183 3.4190 11.9325 -0.3141 5.0058 1.1417 -3.0458 2.4048 -5.1546 -11.6330 -4.8682 -21.3481 5.9912 -4.3328 28.8034 3.6173 -2.2185 13.7772 0.0000 0.0000 0.0000 -84.5237 4.2044 16.7133 20.2636 -30.9587 -5.6663 -0.0000 -0.0000 1.8158 21.2463 23.0023 8.6390 -7.1250 0.0000 -0.0000 -8.2892 54.2776 -1.8998 0.0000 0.0000 0.0000 79.1075 -1.6304 15.3872 -13.5213 22.0463 -2.6458 0.0000 0.0000 10.0121 -15.4177 8.8714 -2.4353 7.1250 -0.0000 -0.0000 8.2578 -20.8244 4.8323
-13.0383 17.8469 13.8769 -4.8678 73.8925 -1.4387 0.0000 0.0000 0.0000 -14.4759 -6.6283 -27.2270 0.9260 6.1305 17.1636 -0.1099 10.8473 -13.6572 0.0079 -0.5726 -1.5735 0.0000 0.0000 0.0000 21.7509 -7.5606 4.9232 -0.3937 -4.0291 11.1585 0.2323 -17.5710 -22.7180 -0.0783 1.8050 -4.9670 3.5163 3.5570 12.1253 -0.2236 5.2149 1.1436 -3.0520 2.5039 -5.2444 -11.6119 -4.8457 -21.3951 5.9166 -4.2720 28.9195 3.5984 -2.1991 13.8280 -0.0000 0.0000 0.0000 -84.6230 4.5694 16.0796 20.1704 -30.8471 -5.6185 -0.0000 -0.0000 2.2414 23.2533 25.3065 10.4081 -7.1250 0.0000 -0.0000 -7.1107 57.0706 -2.1101 -0.0000 0.0000 0.0000 78.8993 -1.2640 15.1433 -13.5551 22.0951 -2.6585 0.0000 0.0000 9.8065 -15.6865 8.6164 -2.4092 7.1250 -0.0000 -0.0000 8.0713 -21.0725 4.6753
-12.9615 17.8357 13.8845 -5.0385 74.2110 -1.3976 0.0000 0.0000 0.0000 -14.1544 -7.7106 -27.1117 0.8563 5.9013 16.4984 -0.1604 11.5227 -13.8817 0.0337 -1.1857 -3.2598 0.0000 0.0000 0.0000 21.8151 -7.6210 5.2095 -0.3678 -3.8955 10.7828 0.2976 -17.9826 -22.7111 -0.1111 2.1488 -5.9170 3.6633 3.6514 12.0086 -0.2638 5.3527 1.1088 -3.1883 2.5691 -5.1890 -11.5201 -4.8391 -21.3908 5.9268 -4.2956 29.0049 3.5860 -2.1965 13.8635 0.0000 0.0000 0.0000 -84.6932 4.9221 15.3838 20.0481 -30.7003 -5.5559 -0.0000 -0.0000 2.8475 24.9884 26.7044 11.8292 -7.1250 0.0000 -0.0000 -5.8162 58.9156 -1.9824 0.0000 0.0000 0.0000 78.8498 -0.8352 14.6349 -13.5744 22.1230 -2.6657 0.0000 0.0000 9.8328 -15.7189 8.6395 -2.4209 7.1250 -0.0000 -0.0000 8.0474 -21.0472 4.6658
